<?xml version="1.0" standalone="no"?>
<!DOCTYPE svg PUBLIC "-//W3C//DTD SVG 20010904//EN"
 "http://www.w3.org/TR/2001/REC-SVG-20010904/DTD/svg10.dtd">
<svg version="1.0" xmlns="http://www.w3.org/2000/svg"
 width="512.000000pt" height="512.000000pt" viewBox="0 0 512.000000 512.000000"
 preserveAspectRatio="xMidYMid meet">

<g transform="translate(0.000000,512.000000) scale(0.100000,-0.100000)"
fill="#FFFFFF" stroke="none">
<path d="M1060 4045 c-311 -63 -572 -315 -631 -610 l-12 -63 -71 5 c-58 4 -82
1 -131 -18 -76 -28 -155 -102 -185 -171 -44 -102 -41 -128 54 -518 94 -386
100 -406 127 -420 48 -26 109 9 109 63 0 14 -38 182 -85 373 -47 191 -85 360
-85 376 0 40 22 88 56 120 73 68 178 64 248 -10 23 -25 44 -84 122 -354 52
-177 107 -348 122 -378 33 -67 120 -156 188 -192 113 -61 27 -58 1674 -58
1647 0 1561 -3 1674 58 68 36 155 125 188 192 15 30 70 201 121 378 85 291 98
327 128 358 40 41 87 58 145 51 52 -5 83 -24 120 -72 48 -63 46 -75 -91 -635
-69 -283 -135 -534 -146 -557 -24 -49 -96 -119 -145 -139 -29 -12 -310 -14
-1996 -14 l-1961 0 -43 21 c-57 27 -128 107 -148 166 -9 25 -23 55 -33 65 -24
26 -75 23 -103 -7 -19 -20 -22 -31 -16 -65 20 -128 146 -267 287 -317 27 -10
49 -22 49 -27 0 -5 -25 -87 -55 -183 -30 -96 -55 -191 -55 -211 1 -135 154
-229 275 -169 53 25 85 72 132 189 l47 118 1626 0 1626 0 47 -118 c47 -117 79
-164 132 -189 121 -60 274 34 275 169 0 20 -25 115 -55 211 -59 188 -61 197
-42 197 30 0 156 71 198 112 49 47 94 117 114 176 7 21 70 271 140 557 111
454 127 527 122 578 -11 120 -98 233 -213 277 -48 18 -72 21 -130 17 l-71 -5
-12 63 c-49 244 -253 480 -492 569 -155 58 -97 56 -1647 55 -1133 -1 -1440 -4
-1492 -14z m2985 -150 c260 -54 481 -295 511 -555 6 -54 4 -62 -19 -89 -33
-40 -51 -89 -132 -371 -38 -129 -70 -237 -72 -239 -2 -3 -13 5 -26 16 -125
114 -636 150 -962 67 -71 -19 -111 -38 -146 -71 l-27 -25 -47 36 c-89 68 -257
100 -533 101 -202 0 -204 0 -223 -24 -24 -30 -24 -76 0 -100 16 -16 41 -19
227 -24 222 -6 363 -27 426 -64 46 -27 68 -76 68 -150 l0 -63 -510 0 -510 0 0
61 c0 71 21 123 59 147 51 31 71 55 71 84 0 32 -39 78 -65 78 -26 0 -78 -25
-113 -55 l-33 -28 -27 26 c-36 33 -76 52 -147 71 -237 60 -586 60 -817 0 -78
-20 -127 -45 -167 -85 -18 -17 -33 -30 -35 -28 -2 2 -40 129 -85 282 -82 283
-98 325 -134 364 -17 19 -19 30 -13 82 16 140 80 266 192 378 65 64 99 90 167
122 150 73 55 69 1632 70 1210 1 1430 -2 1490 -14z m-2321 -1305 c117 -25 127
-29 162 -75 21 -28 28 -50 32 -106 l5 -70 -449 3 -449 3 -50 27 c-87 48 -90
52 -77 97 24 80 71 103 277 137 122 20 422 12 549 -16z m2351 1 c102 -21 134
-37 169 -84 17 -24 18 -29 6 -52 -8 -14 -34 -39 -59 -55 -87 -58 -106 -60
-548 -60 l-403 0 0 48 c0 143 46 179 278 217 126 21 425 13 557 -14z m331
-1058 c20 -65 47 -152 60 -193 29 -92 29 -106 4 -120 -37 -20 -55 4 -114 149
-32 76 -65 146 -75 155 -16 15 -176 16 -1724 16 l-1706 0 -19 -25 c-11 -14
-43 -84 -72 -155 -55 -136 -73 -160 -110 -140 -25 14 -25 28 4 120 13 41 40
128 60 193 l37 117 1809 0 1809 0 37 -117z"/>
<path d="M1373 3560 c-25 -10 -43 -39 -43 -68 0 -15 -9 -21 -35 -26 -62 -12
-86 -82 -42 -124 13 -12 35 -22 50 -22 23 0 27 -4 27 -28 0 -37 37 -72 77 -72
36 0 73 38 73 76 0 18 6 23 32 26 87 9 85 127 -3 145 -16 3 -29 11 -29 19 0
26 -23 62 -47 73 -28 13 -30 13 -60 1z"/>
<path d="M2143 3560 c-25 -10 -43 -39 -43 -68 0 -15 -9 -21 -35 -26 -62 -12
-86 -82 -42 -124 13 -12 35 -22 50 -22 23 0 27 -4 27 -28 0 -37 37 -72 77 -72
36 0 73 38 73 76 0 20 5 24 29 24 34 0 71 39 71 76 0 31 -32 63 -70 71 -20 3
-30 12 -30 23 0 32 -12 50 -41 65 -32 17 -35 17 -66 5z"/>
<path d="M2915 3559 c-29 -16 -45 -40 -45 -65 0 -16 -8 -23 -30 -27 -38 -8
-70 -40 -70 -71 0 -37 37 -76 71 -76 24 0 29 -4 29 -24 0 -13 9 -35 21 -50 41
-52 129 -20 129 47 0 23 4 27 28 27 17 0 37 10 50 23 42 45 19 111 -43 123
-28 5 -35 11 -35 29 0 49 -63 87 -105 64z"/>
<path d="M3684 3559 c-22 -11 -44 -48 -44 -73 0 -8 -13 -16 -29 -19 -88 -18
-90 -136 -3 -145 26 -3 32 -8 32 -26 0 -13 9 -35 21 -50 41 -52 129 -20 129
47 0 23 4 27 28 27 17 0 37 10 50 23 42 45 19 111 -43 123 -28 5 -35 11 -35
29 0 49 -61 86 -106 64z"/>
</g>
</svg>
