<svg xmlns="http://www.w3.org/2000/svg" xmlns:xlink="http://www.w3.org/1999/xlink" width="500" zoomAndPan="magnify" viewBox="0 0 375 374.999991" height="500" preserveAspectRatio="xMidYMid meet" version="1.0"><defs><g/><clipPath id="cc69596d06"><path d="M 83.308594 83.308594 L 291.808594 83.308594 L 291.808594 291.808594 L 83.308594 291.808594 Z M 83.308594 83.308594 " clip-rule="nonzero"/></clipPath><clipPath id="647a09926a"><path d="M 196 137.863281 L 227.714844 137.863281 L 227.714844 240.613281 L 196 240.613281 Z M 196 137.863281 " clip-rule="nonzero"/></clipPath><clipPath id="f2b3f995ee"><path d="M 147.464844 137.863281 L 179 137.863281 L 179 240.613281 L 147.464844 240.613281 Z M 147.464844 137.863281 " clip-rule="nonzero"/></clipPath></defs><rect x="-37.5" width="450" fill="#ffffff" y="-37.499999" height="449.999989" fill-opacity="1"/><rect x="-37.5" width="450" fill="#ffffff" y="-37.499999" height="449.999989" fill-opacity="1"/><rect x="-37.5" width="450" fill="#000000" y="-37.499999" height="449.999989" fill-opacity="1"/><g clip-path="url(#cc69596d06)"><path fill="#fbbe28" d="M 285.359375 215.355469 C 282.71875 224.355469 278.679688 232.894531 273.671875 240.757812 C 269.539062 247.15625 264.835938 253.171875 259.554688 258.640625 C 258.871094 259.386719 258.105469 260.058594 257.382812 260.761719 C 256.644531 261.457031 255.925781 262.171875 255.175781 262.847656 L 252.882812 264.839844 L 251.738281 265.835938 L 250.550781 266.777344 L 248.179688 268.675781 C 247.375 269.289062 246.546875 269.867188 245.734375 270.472656 C 244.125 271.703125 242.414062 272.785156 240.738281 273.925781 C 240.496094 274.085938 240.242188 274.257812 239.976562 274.433594 C 239.703125 274.597656 239.421875 274.769531 239.125 274.949219 C 238.535156 275.300781 237.898438 275.679688 237.21875 276.085938 C 235.882812 276.925781 234.296875 277.71875 232.589844 278.628906 C 232.15625 278.847656 231.726562 279.089844 231.273438 279.308594 C 230.816406 279.523438 230.347656 279.738281 229.875 279.957031 C 228.921875 280.398438 227.9375 280.851562 226.921875 281.320312 C 224.839844 282.136719 222.667969 283.113281 220.296875 283.871094 C 210.945312 287.265625 199.273438 289.359375 187.558594 289.410156 C 175.847656 289.359375 164.175781 287.265625 154.824219 283.871094 C 152.453125 283.113281 150.28125 282.136719 148.199219 281.320312 C 147.183594 280.851562 146.199219 280.398438 145.25 279.957031 C 144.773438 279.738281 144.304688 279.523438 143.847656 279.308594 C 143.394531 279.09375 142.964844 278.847656 142.535156 278.628906 C 140.824219 277.71875 139.238281 276.925781 137.902344 276.085938 C 137.222656 275.679688 136.589844 275.300781 135.996094 274.949219 C 135.703125 274.769531 135.417969 274.601562 135.144531 274.433594 C 134.878906 274.257812 134.625 274.085938 134.382812 273.925781 C 128.019531 269.753906 122.042969 265.019531 116.609375 259.695312 C 110.878906 253.972656 105.867188 247.558594 101.449219 240.757812 C 96.4375 232.894531 92.402344 224.355469 89.761719 215.355469 C 87.007812 206.386719 85.734375 196.972656 85.652344 187.558594 C 85.734375 178.144531 87.007812 168.734375 89.761719 159.761719 C 92.402344 150.765625 96.4375 142.226562 101.449219 134.363281 C 105.582031 127.964844 110.285156 121.949219 115.566406 116.480469 C 116.25 115.730469 117.011719 115.0625 117.738281 114.359375 C 118.476562 113.664062 119.191406 112.949219 119.945312 112.273438 L 122.238281 110.28125 L 123.382812 109.285156 L 124.570312 108.34375 L 126.941406 106.445312 C 127.746094 105.832031 128.574219 105.25 129.386719 104.648438 C 130.996094 103.417969 132.707031 102.335938 134.382812 101.195312 C 134.625 101.035156 134.878906 100.863281 135.144531 100.6875 C 135.417969 100.523438 135.699219 100.351562 135.996094 100.171875 C 136.585938 99.820312 137.222656 99.441406 137.902344 99.035156 C 139.238281 98.195312 140.824219 97.402344 142.53125 96.492188 C 142.964844 96.273438 143.394531 96.03125 143.847656 95.8125 C 144.304688 95.597656 144.773438 95.382812 145.246094 95.164062 C 146.199219 94.722656 147.183594 94.269531 148.199219 93.796875 C 150.28125 92.984375 152.453125 92.007812 154.824219 91.246094 C 164.175781 87.855469 175.847656 85.761719 187.558594 85.710938 C 199.273438 85.761719 210.945312 87.855469 220.296875 91.246094 C 222.667969 92.007812 224.839844 92.984375 226.921875 93.796875 C 227.9375 94.269531 228.921875 94.722656 229.871094 95.164062 C 230.347656 95.382812 230.816406 95.597656 231.273438 95.8125 C 231.726562 96.027344 232.15625 96.273438 232.585938 96.492188 C 234.296875 97.402344 235.882812 98.195312 237.21875 99.035156 C 237.898438 99.441406 238.53125 99.820312 239.125 100.171875 C 239.417969 100.351562 239.703125 100.519531 239.976562 100.6875 C 240.242188 100.863281 240.496094 101.035156 240.738281 101.195312 C 247.101562 105.367188 253.078125 110.101562 258.511719 115.425781 C 264.242188 121.148438 269.253906 127.5625 273.671875 134.363281 C 278.679688 142.226562 282.71875 150.765625 285.359375 159.761719 C 288.113281 168.734375 289.386719 178.144531 289.464844 187.558594 C 289.386719 196.972656 288.113281 206.386719 285.359375 215.355469 Z M 291.808594 187.492188 L 291.808594 187.484375 C 291.722656 177.871094 290.429688 168.253906 287.628906 159.082031 C 284.933594 149.882812 280.808594 141.148438 275.667969 133.128906 L 273.195312 129.414062 C 273.195312 129.414062 272.480469 128.414062 271.410156 126.917969 C 270.378906 125.386719 268.796875 123.5 267.289062 121.5625 C 265.664062 119.722656 264.109375 117.820312 262.796875 116.527344 C 261.523438 115.195312 260.675781 114.3125 260.675781 114.3125 C 260.675781 114.3125 260.460938 114.09375 260.074219 113.71875 C 259.6875 113.347656 259.136719 112.8125 258.472656 112.175781 C 257.183594 110.859375 255.308594 109.273438 253.46875 107.648438 C 252.523438 106.863281 251.554688 106.113281 250.65625 105.390625 C 250.207031 105.035156 249.773438 104.6875 249.359375 104.359375 C 248.933594 104.050781 248.527344 103.757812 248.152344 103.488281 C 246.660156 102.410156 245.664062 101.695312 245.664062 101.695312 C 245.664062 101.695312 245.449219 101.519531 245.097656 101.289062 C 244.75 101.058594 244.289062 100.75 243.824219 100.4375 C 242.898438 99.820312 241.972656 99.199219 241.972656 99.199219 C 241.726562 99.03125 241.464844 98.855469 241.195312 98.675781 C 240.917969 98.503906 240.628906 98.328125 240.324219 98.148438 C 239.722656 97.785156 239.070312 97.394531 238.378906 96.976562 C 237.011719 96.117188 235.390625 95.300781 233.640625 94.371094 C 233.203125 94.140625 232.761719 93.894531 232.296875 93.671875 C 231.828125 93.453125 231.351562 93.230469 230.867188 93.003906 C 229.894531 92.554688 228.886719 92.085938 227.847656 91.605469 C 225.714844 90.765625 223.492188 89.769531 221.066406 88.988281 C 211.496094 85.511719 199.546875 83.355469 187.558594 83.308594 C 175.574219 83.355469 163.625 85.511719 154.050781 88.988281 C 151.628906 89.769531 149.40625 90.769531 147.273438 91.605469 C 146.234375 92.085938 145.226562 92.554688 144.253906 93.003906 C 143.769531 93.230469 143.292969 93.453125 142.824219 93.671875 C 142.359375 93.894531 141.917969 94.140625 141.476562 94.371094 C 139.730469 95.300781 138.109375 96.117188 136.742188 96.976562 C 136.050781 97.394531 135.398438 97.785156 134.792969 98.148438 C 134.492188 98.328125 134.203125 98.507812 133.925781 98.675781 C 133.652344 98.859375 133.394531 99.03125 133.148438 99.199219 C 133.148438 99.199219 132.222656 99.820312 131.296875 100.4375 C 130.832031 100.75 130.371094 101.058594 130.023438 101.292969 C 129.671875 101.519531 129.457031 101.695312 129.457031 101.695312 C 129.457031 101.695312 128.460938 102.410156 126.96875 103.488281 C 126.59375 103.757812 126.1875 104.050781 125.761719 104.359375 C 125.347656 104.6875 124.914062 105.035156 124.464844 105.390625 C 123.566406 106.113281 122.597656 106.863281 121.652344 107.648438 C 119.8125 109.273438 117.9375 110.859375 116.648438 112.175781 C 115.984375 112.8125 115.433594 113.347656 115.046875 113.71875 C 114.660156 114.09375 114.445312 114.3125 114.445312 114.3125 C 114.445312 114.3125 113.597656 115.195312 112.324219 116.527344 C 111.011719 117.820312 109.457031 119.722656 107.832031 121.5625 C 106.320312 123.5 104.742188 125.386719 103.710938 126.917969 C 102.640625 128.414062 101.925781 129.414062 101.925781 129.414062 L 99.453125 133.128906 C 94.308594 141.148438 90.183594 149.882812 87.492188 159.082031 C 84.691406 168.253906 83.398438 177.871094 83.3125 187.484375 L 83.3125 187.492188 L 83.308594 187.558594 L 83.3125 187.628906 L 83.3125 187.636719 C 83.398438 197.25 84.691406 206.867188 87.492188 216.039062 C 90.183594 225.238281 94.308594 233.972656 99.453125 241.992188 L 101.925781 245.707031 C 101.925781 245.707031 102.640625 246.707031 103.710938 248.203125 C 104.742188 249.734375 106.320312 251.621094 107.832031 253.558594 C 109.457031 255.398438 111.011719 257.296875 112.324219 258.59375 C 113.597656 259.921875 114.445312 260.808594 114.445312 260.808594 C 114.445312 260.808594 114.660156 261.027344 115.046875 261.402344 C 115.433594 261.773438 115.984375 262.308594 116.648438 262.945312 C 117.9375 264.261719 119.8125 265.847656 121.652344 267.472656 C 122.597656 268.257812 123.566406 269.007812 124.464844 269.730469 C 124.914062 270.085938 125.347656 270.433594 125.761719 270.761719 C 126.1875 271.070312 126.59375 271.363281 126.96875 271.632812 C 128.460938 272.710938 129.457031 273.425781 129.457031 273.425781 C 129.457031 273.425781 129.671875 273.601562 130.023438 273.828125 C 130.371094 274.0625 130.832031 274.371094 131.296875 274.683594 C 132.222656 275.300781 133.148438 275.921875 133.148438 275.921875 C 133.394531 276.089844 133.652344 276.265625 133.925781 276.445312 C 134.203125 276.617188 134.492188 276.789062 134.796875 276.972656 C 135.398438 277.335938 136.050781 277.726562 136.742188 278.144531 C 138.109375 279.003906 139.730469 279.820312 141.480469 280.75 C 141.917969 280.980469 142.359375 281.226562 142.824219 281.449219 C 143.292969 281.667969 143.769531 281.890625 144.253906 282.117188 C 145.226562 282.566406 146.234375 283.035156 147.273438 283.515625 C 149.40625 284.355469 151.628906 285.351562 154.054688 286.132812 C 163.625 289.609375 175.574219 291.761719 187.558594 291.808594 C 199.546875 291.761719 211.496094 289.609375 221.070312 286.132812 C 223.492188 285.351562 225.714844 284.351562 227.847656 283.515625 C 228.886719 283.035156 229.894531 282.566406 230.867188 282.117188 C 231.351562 281.890625 231.828125 281.667969 232.296875 281.449219 C 232.761719 281.226562 233.203125 280.980469 233.644531 280.75 C 235.390625 279.820312 237.011719 279.003906 238.378906 278.144531 C 239.070312 277.726562 239.722656 277.335938 240.328125 276.972656 C 240.628906 276.789062 240.917969 276.613281 241.195312 276.445312 C 241.46875 276.261719 241.726562 276.089844 241.972656 275.921875 C 241.972656 275.921875 242.898438 275.300781 243.824219 274.683594 C 244.289062 274.371094 244.75 274.0625 245.097656 273.828125 C 245.449219 273.601562 245.664062 273.425781 245.664062 273.425781 C 245.664062 273.425781 246.660156 272.710938 248.152344 271.632812 C 248.527344 271.363281 248.933594 271.070312 249.359375 270.761719 C 249.773438 270.433594 250.207031 270.085938 250.65625 269.730469 C 251.554688 269.007812 252.523438 268.257812 253.46875 267.472656 C 255.308594 265.847656 257.183594 264.261719 258.472656 262.945312 C 259.136719 262.308594 259.6875 261.773438 260.074219 261.402344 C 260.460938 261.027344 260.675781 260.808594 260.675781 260.808594 C 260.675781 260.808594 261.523438 259.921875 262.796875 258.59375 C 264.109375 257.296875 265.664062 255.398438 267.289062 253.558594 C 268.796875 251.621094 270.378906 249.734375 271.410156 248.203125 C 272.480469 246.703125 273.195312 245.707031 273.195312 245.707031 L 275.667969 241.992188 C 280.808594 233.972656 284.933594 225.238281 287.628906 216.039062 C 290.429688 206.867188 291.722656 197.25 291.808594 187.636719 L 291.808594 187.492188 " fill-opacity="1" fill-rule="nonzero"/></g><path stroke-linecap="round" transform="matrix(0.752885, 0, 0, 0.75, 83.310438, 186.749988)" fill="none" stroke-linejoin="miter" d="M 0.998906 1.000016 L 51.813828 1.000016 " stroke="#fbbe28" stroke-width="2" stroke-opacity="1" stroke-miterlimit="4"/><path stroke-linecap="round" transform="matrix(0.752885, 0, 0, 0.75, 252.080525, 186.749988)" fill="none" stroke-linejoin="miter" d="M 0.998169 1.000016 L 51.81309 1.000016 " stroke="#fbbe28" stroke-width="2" stroke-opacity="1" stroke-miterlimit="4"/><g clip-path="url(#647a09926a)"><path fill="#fbbe28" d="M 199.046875 149.277344 L 196.183594 149.277344 L 196.183594 137.863281 L 199.046875 137.863281 C 208.542969 137.863281 216.238281 145.53125 216.238281 154.988281 L 216.238281 174.964844 C 216.238281 176.761719 217.085938 178.457031 218.527344 179.535156 L 225.40625 184.671875 C 226.78125 185.699219 227.621094 187.289062 227.691406 189 C 227.761719 190.710938 227.058594 192.367188 225.773438 193.503906 L 218.160156 200.242188 C 216.9375 201.328125 216.238281 202.878906 216.238281 204.511719 L 216.238281 223.488281 C 216.238281 232.945312 208.542969 240.613281 199.046875 240.613281 L 196.183594 240.613281 L 196.183594 229.195312 L 199.046875 229.195312 C 202.214844 229.195312 204.777344 226.640625 204.777344 223.488281 L 204.777344 204.511719 C 204.777344 199.617188 206.878906 194.960938 210.550781 191.710938 L 212.917969 189.613281 L 211.652344 188.667969 C 207.324219 185.433594 204.777344 180.355469 204.777344 174.964844 L 204.777344 154.988281 C 204.777344 151.835938 202.214844 149.277344 199.046875 149.277344 Z M 199.046875 149.277344 " fill-opacity="1" fill-rule="evenodd"/></g><g clip-path="url(#f2b3f995ee)"><path fill="#fbbe28" d="M 176.128906 149.277344 L 178.996094 149.277344 L 178.996094 137.863281 L 176.128906 137.863281 C 166.636719 137.863281 158.941406 145.53125 158.941406 154.988281 L 158.941406 174.964844 C 158.941406 176.761719 158.09375 178.457031 156.648438 179.535156 L 149.773438 184.671875 C 148.398438 185.699219 147.558594 187.289062 147.488281 189 C 147.417969 190.710938 148.121094 192.367188 149.40625 193.503906 L 157.019531 200.242188 C 158.242188 201.328125 158.941406 202.878906 158.941406 204.511719 L 158.941406 223.488281 C 158.941406 232.945312 166.636719 240.613281 176.128906 240.613281 L 178.996094 240.613281 L 178.996094 229.195312 L 176.128906 229.195312 C 172.964844 229.195312 170.402344 226.640625 170.402344 223.488281 L 170.402344 204.511719 C 170.402344 199.617188 168.300781 194.960938 164.628906 191.710938 L 162.261719 189.613281 L 163.527344 188.667969 C 167.855469 185.433594 170.402344 180.355469 170.402344 174.964844 L 170.402344 154.988281 C 170.402344 151.835938 172.964844 149.277344 176.128906 149.277344 Z M 176.128906 149.277344 " fill-opacity="1" fill-rule="evenodd"/></g><g fill="#fbbe28" fill-opacity="1"><g transform="translate(118.855517, 169.734276)"><g><path d="M 1.890625 -4.847656 C 2.019531 -5.179688 1.914062 -5.421875 1.578125 -5.550781 L -4.070312 -7.753906 L -2.628906 -11.449219 C -0.933594 -15.800781 -2.332031 -19.039062 -6.511719 -20.667969 C -10.332031 -22.15625 -13.617188 -21.171875 -15.65625 -15.945312 L -18.058594 -9.789062 C -18.1875 -9.453125 -18.082031 -9.214844 -17.75 -9.082031 L 0.226562 -2.078125 C 0.558594 -1.945312 0.800781 -2.050781 0.929688 -2.386719 Z M -13.824219 -11.554688 L -12.753906 -14.300781 C -12.222656 -15.660156 -11.09375 -18.480469 -7.832031 -17.207031 C -4.46875 -15.898438 -5.59375 -12.902344 -6.066406 -11.691406 L -7.136719 -8.949219 Z M -13.824219 -11.554688 "/></g></g></g><g fill="#fbbe28" fill-opacity="1"><g transform="translate(127.40831, 150.415895)"><g><path d="M 2.9375 -4.292969 C 3.136719 -4.589844 3.089844 -4.847656 2.792969 -5.050781 L -13.128906 -15.941406 C -13.425781 -16.144531 -13.683594 -16.09375 -13.882812 -15.796875 L -15.375 -13.621094 C -15.578125 -13.324219 -15.527344 -13.066406 -15.234375 -12.863281 L 0.691406 -1.972656 C 0.984375 -1.769531 1.242188 -1.816406 1.445312 -2.113281 Z M 2.9375 -4.292969 "/></g></g></g><g fill="#fbbe28" fill-opacity="1"><g transform="translate(133.208486, 141.087138)"><g><path d="M 9.300781 -7.5 C 11.847656 -9.730469 13.179688 -12.582031 13.144531 -15.464844 C 13.152344 -15.714844 13.078125 -15.898438 12.914062 -16.089844 L 9.148438 -20.394531 C 8.914062 -20.664062 8.652344 -20.679688 8.382812 -20.445312 L 2.859375 -15.613281 C 2.589844 -15.378906 2.570312 -15.117188 2.808594 -14.847656 L 4.171875 -13.289062 C 4.40625 -13.019531 4.667969 -13.003906 4.9375 -13.238281 L 8.273438 -16.15625 L 9.539062 -14.707031 C 9.40625 -12.984375 8.589844 -11.300781 7.109375 -10.007812 C 4.105469 -7.378906 -0.113281 -7.585938 -3.011719 -10.902344 C -5.871094 -14.167969 -5.480469 -18.316406 -2.464844 -20.953125 C -0.933594 -22.289062 0.898438 -22.855469 2.667969 -22.726562 C 3.003906 -22.703125 3.210938 -22.851562 3.269531 -23.183594 L 3.894531 -25.738281 C 3.964844 -26.101562 3.808594 -26.316406 3.453125 -26.339844 C 0.652344 -26.640625 -2.265625 -25.726562 -4.742188 -23.5625 C -9.40625 -19.480469 -10.011719 -13.222656 -5.828125 -8.4375 C -1.636719 -3.644531 4.640625 -3.421875 9.300781 -7.5 Z M 9.300781 -7.5 "/></g></g></g><g fill="#fbbe28" fill-opacity="1"><g transform="translate(152.626507, 125.782685)"><g><path d="M 4.644531 -2.339844 C 4.964844 -2.5 5.046875 -2.75 4.886719 -3.070312 L -3.789062 -20.300781 C -3.949219 -20.621094 -4.199219 -20.703125 -4.519531 -20.542969 L -6.875 -19.355469 C -7.195312 -19.191406 -7.277344 -18.945312 -7.117188 -18.625 L 1.558594 -1.394531 C 1.71875 -1.074219 1.96875 -0.992188 2.289062 -1.152344 Z M 4.644531 -2.339844 "/></g></g></g><g fill="#fbbe28" fill-opacity="1"><g transform="translate(162.356914, 120.525103)"><g><path d="M 5.5625 -22.199219 C 5.109375 -22.804688 4.554688 -22.675781 4.398438 -21.929688 L 0.285156 -0.71875 C 0.203125 -0.304688 0.425781 -0.0976562 0.8125 -0.1875 L 3.671875 -0.847656 C 3.957031 -0.914062 4.144531 -1.09375 4.183594 -1.402344 L 4.664062 -4.453125 L 13 -6.378906 L 14.769531 -3.847656 C 14.941406 -3.585938 15.191406 -3.507812 15.472656 -3.574219 L 18.320312 -4.230469 C 18.71875 -4.324219 18.816406 -4.605469 18.574219 -4.945312 Z M 6.453125 -15.746094 L 11.152344 -9.015625 L 5.167969 -7.632812 Z M 6.453125 -15.746094 "/></g></g></g><g fill="#fbbe28" fill-opacity="1"><g transform="translate(184.779044, 116.451615)"><g/></g></g><g fill="#fbbe28" fill-opacity="1"><g transform="translate(196.4239, 116.658114)"><g><path d="M 8.355469 1.90625 C 8.707031 1.988281 8.929688 1.847656 9.007812 1.496094 L 12.6875 -14.621094 L 16.992188 -13.636719 C 17.34375 -13.558594 17.566406 -13.710938 17.644531 -14.046875 L 18.136719 -16.207031 C 18.21875 -16.554688 18.078125 -16.777344 17.726562 -16.859375 L 5.464844 -19.65625 C 5.117188 -19.734375 4.894531 -19.597656 4.8125 -19.246094 L 4.320312 -17.085938 C 4.246094 -16.75 4.382812 -16.515625 4.730469 -16.433594 L 9.023438 -15.453125 L 5.347656 0.664062 C 5.265625 1.011719 5.417969 1.238281 5.757812 1.3125 Z M 8.355469 1.90625 "/></g></g></g><g fill="#fbbe28" fill-opacity="1"><g transform="translate(213.387498, 120.577328)"><g><path d="M 18.988281 -12.777344 C 19.054688 -13.527344 18.558594 -13.804688 17.945312 -13.355469 L 0.691406 -0.34375 C 0.355469 -0.09375 0.382812 0.210938 0.730469 0.40625 L 3.296875 1.828125 C 3.550781 1.96875 3.8125 1.960938 4.046875 1.757812 L 6.445312 -0.191406 L 13.929688 3.957031 L 13.550781 7.023438 C 13.503906 7.332031 13.636719 7.558594 13.890625 7.699219 L 16.445312 9.113281 C 16.804688 9.3125 17.066406 9.167969 17.113281 8.753906 Z M 15.332031 -7.382812 L 14.320312 0.761719 L 8.949219 -2.214844 Z M 15.332031 -7.382812 "/></g></g></g><g fill="#fbbe28" fill-opacity="1"><g transform="translate(232.659595, 132.028302)"><g><path d="M 5.222656 6.027344 C 7.714844 8.578125 11.257812 9.8125 14.144531 6.992188 C 16.707031 4.488281 15.851562 1.355469 15.019531 -1.414062 C 14.242188 -3.898438 13.511719 -5.933594 14.785156 -7.175781 C 15.820312 -8.1875 17.109375 -7.664062 18.210938 -6.535156 C 19.121094 -5.605469 19.929688 -4.265625 20.496094 -2.832031 C 20.625 -2.511719 20.886719 -2.414062 21.207031 -2.542969 L 23.207031 -3.515625 C 23.527344 -3.640625 23.640625 -3.882812 23.503906 -4.214844 C 22.71875 -6.007812 21.621094 -7.714844 20.5 -8.863281 C 18.105469 -11.3125 14.761719 -12.421875 11.960938 -9.6875 C 9.628906 -7.40625 10.148438 -4.648438 10.90625 -1.9375 C 11.691406 0.800781 12.65625 3.15625 11.367188 4.417969 C 10.296875 5.464844 8.84375 5.082031 7.480469 3.6875 C 6.507812 2.691406 5.523438 1.207031 4.804688 -0.835938 C 4.675781 -1.175781 4.445312 -1.300781 4.121094 -1.171875 L 1.972656 -0.222656 C 1.644531 -0.0859375 1.535156 0.148438 1.664062 0.507812 C 2.714844 2.988281 3.859375 4.632812 5.222656 6.027344 Z M 5.222656 6.027344 "/></g></g></g><g fill="#fbbe28" fill-opacity="1"><g transform="translate(245.587696, 145.953403)"><g><path d="M 4.222656 7.457031 C 4.402344 7.769531 4.652344 7.839844 4.964844 7.664062 L 19.351562 -0.484375 L 21.527344 3.359375 C 21.703125 3.671875 21.96875 3.734375 22.269531 3.5625 L 24.195312 2.472656 C 24.507812 2.296875 24.578125 2.042969 24.402344 1.730469 L 18.203125 -9.214844 C 18.027344 -9.523438 17.773438 -9.59375 17.460938 -9.417969 L 15.535156 -8.328125 C 15.234375 -8.15625 15.152344 -7.898438 15.328125 -7.585938 L 17.5 -3.753906 L 3.117188 4.394531 C 2.804688 4.574219 2.738281 4.835938 2.910156 5.136719 Z M 4.222656 7.457031 "/></g></g></g><g fill="#fbbe28" fill-opacity="1"><g transform="translate(253.819243, 161.92078)"><g><path d="M 1.578125 4.957031 C 1.6875 5.296875 1.921875 5.417969 2.261719 5.308594 L 20.644531 -0.546875 C 20.984375 -0.652344 21.105469 -0.886719 20.996094 -1.230469 L 20.195312 -3.746094 C 20.085938 -4.085938 19.851562 -4.207031 19.511719 -4.097656 L 1.128906 1.757812 C 0.789062 1.863281 0.667969 2.097656 0.777344 2.441406 Z M 1.578125 4.957031 "/></g></g></g><g fill="#fbbe28" fill-opacity="1"><g transform="translate(101.824409, 206.984369)"><g><path d="M 1.875 5.640625 L 1.25 3.765625 C 0.945312 2.867188 0.953125 2.09375 1.265625 1.4375 C 1.585938 0.789062 2.195312 0.320312 3.09375 0.03125 L 8.546875 -1.78125 C 9.441406 -2.070312 10.207031 -2.050781 10.84375 -1.71875 C 11.488281 -1.394531 11.960938 -0.785156 12.265625 0.109375 L 12.890625 1.984375 C 13.179688 2.867188 13.164062 3.640625 12.84375 4.296875 C 12.53125 4.960938 11.929688 5.441406 11.046875 5.734375 L 10.234375 6 C 9.984375 6.082031 9.816406 6 9.734375 5.75 L 9.25 4.3125 C 9.175781 4.0625 9.265625 3.894531 9.515625 3.8125 L 10.21875 3.578125 C 10.582031 3.460938 10.816406 3.300781 10.921875 3.09375 C 11.023438 2.894531 11.015625 2.613281 10.890625 2.25 L 10.5 1.078125 C 10.382812 0.734375 10.222656 0.503906 10.015625 0.390625 C 9.804688 0.285156 9.519531 0.289062 9.15625 0.40625 L 3.921875 2.15625 C 3.554688 2.269531 3.320312 2.429688 3.21875 2.640625 C 3.125 2.859375 3.132812 3.140625 3.25 3.484375 L 3.640625 4.65625 C 3.765625 5.019531 3.925781 5.25 4.125 5.34375 C 4.332031 5.445312 4.617188 5.441406 4.984375 5.328125 L 5.703125 5.078125 C 5.941406 5.003906 6.097656 5.09375 6.171875 5.34375 L 6.65625 6.78125 C 6.738281 7.03125 6.660156 7.191406 6.421875 7.265625 L 5.59375 7.546875 C 4.707031 7.835938 3.9375 7.8125 3.28125 7.46875 C 2.632812 7.132812 2.164062 6.523438 1.875 5.640625 Z M 1.875 5.640625 "/></g></g></g><g fill="#fbbe28" fill-opacity="1"><g transform="translate(106.76415, 220.636035)"><g><path d="M 3.765625 2.90625 L 4.375 4.046875 C 4.550781 4.390625 4.75 4.59375 4.96875 4.65625 C 5.195312 4.726562 5.476562 4.675781 5.8125 4.5 L 10.703125 1.921875 C 11.035156 1.742188 11.234375 1.546875 11.296875 1.328125 C 11.367188 1.109375 11.316406 0.828125 11.140625 0.484375 L 10.53125 -0.65625 C 10.351562 -1 10.15625 -1.203125 9.9375 -1.265625 C 9.71875 -1.328125 9.441406 -1.269531 9.109375 -1.09375 L 4.21875 1.484375 C 3.882812 1.660156 3.679688 1.851562 3.609375 2.0625 C 3.535156 2.28125 3.585938 2.5625 3.765625 2.90625 Z M 2.796875 5.3125 L 1.84375 3.515625 C 1.40625 2.671875 1.289062 1.90625 1.5 1.21875 C 1.707031 0.53125 2.226562 -0.0351562 3.0625 -0.484375 L 8.140625 -3.15625 C 8.972656 -3.59375 9.734375 -3.703125 10.421875 -3.484375 C 11.109375 -3.273438 11.671875 -2.75 12.109375 -1.90625 L 13.0625 -0.109375 C 13.507812 0.722656 13.628906 1.488281 13.421875 2.1875 C 13.210938 2.894531 12.691406 3.46875 11.859375 3.90625 L 6.78125 6.578125 C 5.945312 7.023438 5.1875 7.132812 4.5 6.90625 C 3.8125 6.675781 3.242188 6.144531 2.796875 5.3125 Z M 2.796875 5.3125 "/></g></g></g><g fill="#fbbe28" fill-opacity="1"><g transform="translate(114.008536, 233.520182)"><g><path d="M 3.8125 1.71875 L 5 3.28125 C 5.226562 3.582031 5.457031 3.75 5.6875 3.78125 C 5.914062 3.8125 6.179688 3.710938 6.484375 3.484375 L 10.875 0.140625 C 11.175781 -0.0976562 11.34375 -0.332031 11.375 -0.5625 C 11.40625 -0.789062 11.304688 -1.054688 11.078125 -1.359375 L 9.890625 -2.921875 C 9.804688 -3.035156 9.707031 -3.050781 9.59375 -2.96875 L 3.84375 1.421875 C 3.738281 1.503906 3.726562 1.601562 3.8125 1.71875 Z M 1 0.703125 L 9.640625 -5.875 C 9.835938 -6.03125 10.015625 -6.007812 10.171875 -5.8125 L 12.890625 -2.265625 C 13.453125 -1.515625 13.6875 -0.773438 13.59375 -0.046875 C 13.507812 0.679688 13.09375 1.328125 12.34375 1.890625 L 7.78125 5.375 C 7.039062 5.945312 6.304688 6.175781 5.578125 6.0625 C 4.859375 5.957031 4.21875 5.53125 3.65625 4.78125 L 0.9375 1.234375 C 0.78125 1.035156 0.800781 0.859375 1 0.703125 Z M 1 0.703125 "/></g></g></g><g fill="#fbbe28" fill-opacity="1"><g transform="translate(123.273144, 244.85362)"><g><path d="M 10.453125 -5.4375 L 2.796875 2.25 C 2.617188 2.425781 2.4375 2.421875 2.25 2.234375 L 1.15625 1.15625 C 0.976562 0.976562 0.976562 0.800781 1.15625 0.625 L 8.8125 -7.0625 C 8.988281 -7.238281 9.164062 -7.238281 9.34375 -7.0625 L 10.4375 -5.984375 C 10.625 -5.796875 10.628906 -5.613281 10.453125 -5.4375 Z M 10.453125 -5.4375 "/></g></g></g><g fill="#fbbe28" fill-opacity="1"><g transform="translate(130.095784, 251.442088)"><g><path d="M 4.734375 3.59375 L 3.15625 2.40625 C 2.40625 1.832031 1.976562 1.1875 1.875 0.46875 C 1.769531 -0.238281 2.003906 -0.972656 2.578125 -1.734375 L 6.03125 -6.296875 C 6.601562 -7.054688 7.25 -7.476562 7.96875 -7.5625 C 8.6875 -7.65625 9.421875 -7.414062 10.171875 -6.84375 L 11.75 -5.65625 C 12.488281 -5.09375 12.914062 -4.445312 13.03125 -3.71875 C 13.144531 -3 12.914062 -2.265625 12.34375 -1.515625 L 11.84375 -0.84375 C 11.675781 -0.625 11.488281 -0.59375 11.28125 -0.75 L 10.078125 -1.671875 C 9.867188 -1.828125 9.847656 -2.015625 10.015625 -2.234375 L 10.453125 -2.828125 C 10.691406 -3.128906 10.789062 -3.390625 10.75 -3.609375 C 10.71875 -3.835938 10.550781 -4.070312 10.25 -4.3125 L 9.265625 -5.0625 C 8.972656 -5.28125 8.710938 -5.375 8.484375 -5.34375 C 8.253906 -5.3125 8.019531 -5.144531 7.78125 -4.84375 L 4.453125 -0.4375 C 4.222656 -0.132812 4.125 0.128906 4.15625 0.359375 C 4.195312 0.585938 4.363281 0.8125 4.65625 1.03125 L 5.640625 1.78125 C 5.941406 2.019531 6.207031 2.117188 6.4375 2.078125 C 6.664062 2.046875 6.894531 1.878906 7.125 1.578125 L 7.578125 0.96875 C 7.734375 0.757812 7.914062 0.734375 8.125 0.890625 L 9.328125 1.8125 C 9.535156 1.96875 9.5625 2.148438 9.40625 2.359375 L 8.890625 3.046875 C 8.316406 3.796875 7.664062 4.210938 6.9375 4.296875 C 6.207031 4.390625 5.472656 4.15625 4.734375 3.59375 Z M 4.734375 3.59375 "/></g></g></g><g fill="#fbbe28" fill-opacity="1"><g transform="translate(141.876915, 259.856708)"><g><path d="M 6.5625 3.515625 L 1.359375 0.734375 C 1.140625 0.609375 1.085938 0.4375 1.203125 0.21875 L 6.34375 -9.359375 C 6.457031 -9.578125 6.625 -9.625 6.84375 -9.5 L 12.046875 -6.71875 C 12.273438 -6.59375 12.332031 -6.421875 12.21875 -6.203125 L 11.625 -5.109375 C 11.507812 -4.890625 11.335938 -4.84375 11.109375 -4.96875 L 7.796875 -6.75 C 7.671875 -6.8125 7.578125 -6.78125 7.515625 -6.65625 L 6.40625 -4.59375 C 6.34375 -4.476562 6.375 -4.390625 6.5 -4.328125 L 9.234375 -2.859375 C 9.453125 -2.742188 9.503906 -2.578125 9.390625 -2.359375 L 8.8125 -1.28125 C 8.6875 -1.050781 8.515625 -0.992188 8.296875 -1.109375 L 5.5625 -2.578125 C 5.4375 -2.640625 5.34375 -2.613281 5.28125 -2.5 L 4.09375 -0.28125 C 4.03125 -0.164062 4.0625 -0.078125 4.1875 -0.015625 L 7.5 1.765625 C 7.726562 1.890625 7.785156 2.0625 7.671875 2.28125 L 7.078125 3.375 C 6.960938 3.59375 6.789062 3.640625 6.5625 3.515625 Z M 6.5625 3.515625 "/></g></g></g><g fill="#fbbe28" fill-opacity="1"><g transform="translate(153.741722, 265.736935)"><g/></g></g><g fill="#fbbe28" fill-opacity="1"><g transform="translate(161.819902, 268.749262)"><g><path d="M 2.328125 0.5625 L 0.640625 0.15625 C 0.421875 0.101562 0.378906 -0.03125 0.515625 -0.25 L 5.84375 -10.140625 C 5.976562 -10.367188 6.179688 -10.445312 6.453125 -10.375 L 8.796875 -9.8125 C 9.085938 -9.738281 9.238281 -9.578125 9.25 -9.328125 L 9.453125 1.90625 C 9.453125 2.164062 9.347656 2.269531 9.140625 2.21875 L 7.453125 1.8125 C 7.328125 1.78125 7.242188 1.734375 7.203125 1.671875 C 7.171875 1.609375 7.164062 1.503906 7.1875 1.359375 L 7.171875 -0.6875 L 3.734375 -1.53125 L 2.78125 0.296875 C 2.71875 0.421875 2.648438 0.503906 2.578125 0.546875 C 2.515625 0.585938 2.429688 0.59375 2.328125 0.5625 Z M 7.078125 -7.984375 L 4.578125 -3.203125 L 7.171875 -2.578125 L 7.15625 -7.953125 Z M 7.078125 -7.984375 "/></g></g></g><g fill="#fbbe28" fill-opacity="1"><g transform="translate(176.361304, 271.85746)"><g><path d="M 3.078125 0.21875 L 1.546875 0.109375 C 1.296875 0.0859375 1.179688 -0.046875 1.203125 -0.296875 L 1.96875 -11.125 C 1.988281 -11.375 2.125 -11.488281 2.375 -11.46875 L 6.671875 -11.15625 C 7.609375 -11.09375 8.320312 -10.78125 8.8125 -10.21875 C 9.300781 -9.664062 9.515625 -8.925781 9.453125 -8 L 9.34375 -6.59375 C 9.25 -5.226562 8.65625 -4.363281 7.5625 -4 L 7.546875 -3.9375 L 9.171875 0.21875 C 9.265625 0.519531 9.160156 0.660156 8.859375 0.640625 L 7.390625 0.53125 C 7.171875 0.507812 7.015625 0.472656 6.921875 0.421875 C 6.835938 0.367188 6.769531 0.265625 6.71875 0.109375 L 5.1875 -3.921875 L 3.984375 -4 C 3.835938 -4.007812 3.757812 -3.945312 3.75 -3.8125 L 3.484375 -0.125 C 3.460938 0.125 3.328125 0.238281 3.078125 0.21875 Z M 4.09375 -5.84375 L 5.859375 -5.71875 C 6.242188 -5.6875 6.53125 -5.742188 6.71875 -5.890625 C 6.914062 -6.046875 7.03125 -6.304688 7.0625 -6.671875 L 7.15625 -8.078125 C 7.1875 -8.441406 7.113281 -8.710938 6.9375 -8.890625 C 6.769531 -9.066406 6.492188 -9.171875 6.109375 -9.203125 L 4.34375 -9.328125 C 4.207031 -9.335938 4.132812 -9.273438 4.125 -9.140625 L 3.90625 -6.0625 C 3.894531 -5.925781 3.957031 -5.851562 4.09375 -5.84375 Z M 4.09375 -5.84375 "/></g></g></g><g fill="#fbbe28" fill-opacity="1"><g transform="translate(190.973251, 272.46753)"><g><path d="M 4.75 -0.390625 L 3.234375 -0.265625 C 2.972656 -0.242188 2.832031 -0.359375 2.8125 -0.609375 L 2.0625 -9.625 C 2.050781 -9.757812 1.976562 -9.820312 1.84375 -9.8125 L -0.203125 -9.640625 C -0.453125 -9.617188 -0.585938 -9.734375 -0.609375 -9.984375 L -0.703125 -11.21875 C -0.722656 -11.457031 -0.609375 -11.585938 -0.359375 -11.609375 L 6.4375 -12.171875 C 6.6875 -12.191406 6.820312 -12.082031 6.84375 -11.84375 L 6.9375 -10.609375 C 6.957031 -10.359375 6.84375 -10.222656 6.59375 -10.203125 L 4.546875 -10.03125 C 4.398438 -10.019531 4.332031 -9.945312 4.34375 -9.8125 L 5.09375 -0.796875 C 5.113281 -0.546875 5 -0.410156 4.75 -0.390625 Z M 4.75 -0.390625 "/></g></g></g><g fill="#fbbe28" fill-opacity="1"><g transform="translate(203.492015, 271.049183)"><g><path d="M 1.1875 -11.734375 L 3.40625 -1.09375 C 3.457031 -0.851562 3.359375 -0.707031 3.109375 -0.65625 L 1.609375 -0.34375 C 1.359375 -0.289062 1.207031 -0.382812 1.15625 -0.625 L -1.0625 -11.265625 C -1.113281 -11.503906 -1.015625 -11.648438 -0.765625 -11.703125 L 0.734375 -12.015625 C 0.984375 -12.066406 1.132812 -11.972656 1.1875 -11.734375 Z M 1.1875 -11.734375 "/></g></g></g><g fill="#fbbe28" fill-opacity="1"><g transform="translate(212.747074, 268.962326)"><g><path d="M 5.546875 -1.96875 L 3.734375 -1.328125 C 2.847656 -1.015625 2.078125 -1.003906 1.421875 -1.296875 C 0.765625 -1.597656 0.273438 -2.195312 -0.046875 -3.09375 L -1.96875 -8.5 C -2.28125 -9.394531 -2.273438 -10.164062 -1.953125 -10.8125 C -1.640625 -11.46875 -1.039062 -11.953125 -0.15625 -12.265625 L 1.65625 -12.90625 C 2.539062 -13.21875 3.3125 -13.21875 3.96875 -12.90625 C 4.625 -12.601562 5.109375 -12.007812 5.421875 -11.125 L 5.609375 -10.609375 C 5.691406 -10.359375 5.617188 -10.191406 5.390625 -10.109375 L 3.9375 -9.609375 C 3.707031 -9.523438 3.550781 -9.609375 3.46875 -9.859375 L 3.328125 -10.265625 C 3.191406 -10.628906 3.019531 -10.859375 2.8125 -10.953125 C 2.613281 -11.054688 2.335938 -11.039062 1.984375 -10.90625 L 0.859375 -10.515625 C 0.515625 -10.390625 0.289062 -10.222656 0.1875 -10.015625 C 0.0820312 -9.804688 0.0976562 -9.519531 0.234375 -9.15625 L 2.078125 -3.96875 C 2.203125 -3.601562 2.367188 -3.375 2.578125 -3.28125 C 2.785156 -3.1875 3.0625 -3.203125 3.40625 -3.328125 L 4.53125 -3.71875 C 4.882812 -3.851562 5.109375 -4.019531 5.203125 -4.21875 C 5.304688 -4.425781 5.296875 -4.710938 5.171875 -5.078125 L 4.78125 -6.15625 C 4.738281 -6.28125 4.65625 -6.316406 4.53125 -6.265625 L 3.5 -5.90625 C 3.257812 -5.820312 3.097656 -5.894531 3.015625 -6.125 L 2.59375 -7.296875 C 2.507812 -7.523438 2.585938 -7.679688 2.828125 -7.765625 L 5.8125 -8.828125 C 6.0625 -8.910156 6.234375 -8.820312 6.328125 -8.5625 L 7.34375 -5.71875 C 7.65625 -4.832031 7.65625 -4.0625 7.34375 -3.40625 C 7.03125 -2.757812 6.429688 -2.28125 5.546875 -1.96875 Z M 5.546875 -1.96875 "/></g></g></g><g fill="#fbbe28" fill-opacity="1"><g transform="translate(226.232305, 263.659725)"><g><path d="M -1.984375 -11.625 L 3 -1.96875 C 3.113281 -1.75 3.050781 -1.578125 2.8125 -1.453125 L 1.453125 -0.75 C 1.234375 -0.632812 1.066406 -0.6875 0.953125 -0.90625 L -4.03125 -10.5625 C -4.144531 -10.78125 -4.09375 -10.945312 -3.875 -11.0625 L -2.515625 -11.765625 C -2.273438 -11.890625 -2.097656 -11.84375 -1.984375 -11.625 Z M -1.984375 -11.625 "/></g></g></g><g fill="#fbbe28" fill-opacity="1"><g transform="translate(234.6039, 259.179956)"><g><path d="M 1.953125 -1.375 L 0.53125 -0.375 C 0.351562 -0.25 0.222656 -0.3125 0.140625 -0.5625 L -3.765625 -11.078125 C -3.847656 -11.328125 -3.773438 -11.535156 -3.546875 -11.703125 L -1.578125 -13.078125 C -1.328125 -13.253906 -1.101562 -13.257812 -0.90625 -13.09375 L 7.65625 -5.84375 C 7.863281 -5.675781 7.878906 -5.53125 7.703125 -5.40625 L 6.28125 -4.40625 C 6.175781 -4.332031 6.085938 -4.300781 6.015625 -4.3125 C 5.941406 -4.332031 5.851562 -4.398438 5.75 -4.515625 L 4.203125 -5.84375 L 1.3125 -3.8125 L 2.046875 -1.90625 C 2.109375 -1.769531 2.128906 -1.660156 2.109375 -1.578125 C 2.097656 -1.503906 2.046875 -1.4375 1.953125 -1.375 Z M -1.328125 -10.578125 L 0.609375 -5.5625 L 2.796875 -7.109375 L -1.265625 -10.625 Z M -1.328125 -10.578125 "/></g></g></g><g fill="#fbbe28" fill-opacity="1"><g transform="translate(246.558851, 250.299596)"><g><path d="M 2.15625 -2.15625 L 1.09375 -1.09375 C 0.914062 -0.914062 0.738281 -0.914062 0.5625 -1.09375 L -7.09375 -8.796875 C -7.269531 -8.972656 -7.269531 -9.148438 -7.09375 -9.328125 L -6.125 -10.28125 C -5.945312 -10.457031 -5.769531 -10.515625 -5.59375 -10.453125 L 1.8125 -8.1875 L 1.875 -8.234375 L -2.859375 -13 C -3.035156 -13.175781 -3.035156 -13.351562 -2.859375 -13.53125 L -1.796875 -14.59375 C -1.617188 -14.769531 -1.441406 -14.769531 -1.265625 -14.59375 L 6.390625 -6.890625 C 6.566406 -6.710938 6.566406 -6.535156 6.390625 -6.359375 L 5.453125 -5.421875 C 5.265625 -5.234375 5.039062 -5.179688 4.78125 -5.265625 L -2.515625 -7.484375 L -2.5625 -7.4375 L 2.171875 -2.6875 C 2.347656 -2.507812 2.34375 -2.332031 2.15625 -2.15625 Z M 2.15625 -2.15625 "/></g></g></g><g fill="#fbbe28" fill-opacity="1"><g transform="translate(257.160197, 239.13646)"><g><path d="M 1.390625 -1.953125 L 0.375 -0.53125 C 0.25 -0.351562 0.101562 -0.367188 -0.0625 -0.578125 L -7.25 -9.171875 C -7.414062 -9.390625 -7.414062 -9.613281 -7.25 -9.84375 L -5.859375 -11.796875 C -5.679688 -12.046875 -5.472656 -12.125 -5.234375 -12.03125 L 5.265625 -8.0625 C 5.515625 -7.976562 5.570312 -7.847656 5.4375 -7.671875 L 4.4375 -6.25 C 4.363281 -6.15625 4.289062 -6.097656 4.21875 -6.078125 C 4.144531 -6.066406 4.039062 -6.097656 3.90625 -6.171875 L 2.015625 -6.90625 L -0.03125 -4.015625 L 1.28125 -2.46875 C 1.394531 -2.375 1.457031 -2.285156 1.46875 -2.203125 C 1.476562 -2.128906 1.453125 -2.046875 1.390625 -1.953125 Z M -4.796875 -9.53125 L -1.28125 -5.453125 L 0.265625 -7.640625 L -4.75 -9.59375 Z M -4.796875 -9.53125 "/></g></g></g><g fill="#fbbe28" fill-opacity="1"><g transform="translate(265.36581, 226.802261)"><g><path d="M 3.34375 -6.71875 L 0.6875 -1.390625 C 0.570312 -1.160156 0.40625 -1.101562 0.1875 -1.21875 L -9.546875 -6.046875 C -9.765625 -6.160156 -9.816406 -6.332031 -9.703125 -6.5625 L -9.015625 -7.9375 C -8.898438 -8.164062 -8.734375 -8.222656 -8.515625 -8.109375 L -0.421875 -4.09375 C -0.304688 -4.03125 -0.21875 -4.0625 -0.15625 -4.1875 L 1.546875 -7.609375 C 1.648438 -7.816406 1.820312 -7.863281 2.0625 -7.75 L 3.171875 -7.203125 C 3.390625 -7.085938 3.445312 -6.925781 3.34375 -6.71875 Z M 3.34375 -6.71875 "/></g></g></g><g fill="#fbbe28" fill-opacity="1"><g transform="translate(270.785929, 215.180153)"><g><path d="M 2.296875 -7.09375 L 0.484375 -1.46875 C 0.398438 -1.226562 0.238281 -1.144531 0 -1.21875 L -10.328125 -4.578125 C -10.566406 -4.660156 -10.644531 -4.820312 -10.5625 -5.0625 L -8.75 -10.6875 C -8.664062 -10.914062 -8.503906 -10.988281 -8.265625 -10.90625 L -7.09375 -10.53125 C -6.851562 -10.445312 -6.773438 -10.289062 -6.859375 -10.0625 L -8.015625 -6.46875 C -8.054688 -6.332031 -8.015625 -6.242188 -7.890625 -6.203125 L -5.65625 -5.484375 C -5.519531 -5.441406 -5.429688 -5.488281 -5.390625 -5.625 L -4.4375 -8.578125 C -4.363281 -8.816406 -4.210938 -8.898438 -3.984375 -8.828125 L -2.8125 -8.4375 C -2.570312 -8.363281 -2.488281 -8.207031 -2.5625 -7.96875 L -3.515625 -5.015625 C -3.554688 -4.878906 -3.515625 -4.789062 -3.390625 -4.75 L -1 -3.96875 C -0.875 -3.925781 -0.789062 -3.972656 -0.75 -4.109375 L 0.40625 -7.703125 C 0.488281 -7.929688 0.648438 -8.007812 0.890625 -7.9375 L 2.0625 -7.546875 C 2.300781 -7.472656 2.378906 -7.320312 2.296875 -7.09375 Z M 2.296875 -7.09375 "/></g></g></g><g fill="#fbbe28" fill-opacity="1"><g transform="translate(173.943813, 207.760903)"><g><path d="M 14.40625 -29.457031 C 18.289062 -29.457031 21.488281 -32.574219 21.488281 -36.539062 C 21.488281 -40.425781 18.332031 -43.660156 14.40625 -43.660156 C 10.441406 -43.660156 7.285156 -40.34375 7.285156 -36.539062 C 7.285156 -32.613281 10.519531 -29.457031 14.40625 -29.457031 Z M 11.332031 11.453125 C 12.21875 11.453125 12.867188 11.046875 13.191406 10.074219 L 19.382812 -10.640625 C 19.707031 -11.773438 19.179688 -12.503906 18.007812 -12.503906 L 11.613281 -12.503906 C 10.601562 -12.503906 10.035156 -12.019531 9.832031 -11.046875 L 5.421875 9.628906 C 5.179688 10.683594 5.746094 11.453125 6.917969 11.453125 Z M 11.332031 11.453125 "/></g></g></g></svg>